<svg viewBox="0 0 115 66" xmlns="http://www.w3.org/2000/svg">
    <defs>
        <linearGradient x1="37.59%" y1="77.676%" x2="76.422%" y2="25.706%" id="a">
            <stop stop-color="#800019" offset="0%"/>
            <stop stop-color="#FF0037" offset="59.528%"/>
            <stop stop-color="#800019" offset="100%"/>
        </linearGradient>
    </defs>
    <g fill="none" fill-rule="evenodd">
        <path d="M0 21.008s3.435-5.883 4.395-6.236c.96-.354 12.307 4.009 12.307 4.009a19.1 19.1 0 0 0 .879 3.564 29.497 29.497 0 0 0 1.758 4.009s-10.723-.774-11.866-.445c-1.144.328-4.834 7.127-4.834 7.127a52.328 52.328 0 0 0 3.516 6.236c1.779 2.561 4.395 5.791 4.395 5.791s3.419-6.322 4.834-7.128c1.415-.805 9.23-4.008 9.23-4.008s1.5 1.662 3.516 3.563a44.658 44.658 0 0 0 4.394 3.564s-3.702 5.721-4.834 7.573c-1.131 1.852-5.713 7.127-5.713 7.127s4.24 2.777 7.471 4.455a42.326 42.326 0 0 0 6.593 2.673s4.97-4.9 5.274-6.236c.304-1.337-.44-10.692-.44-10.692a27.958 27.958 0 0 0 4.835 1.782c1.303.266 2.626.415 3.955.446 0 0 4.359 11.072 4.395 12.027.036.954-5.274 5.791-5.274 5.791s7.292.02 9.669-1.782c2.376-1.801 5.85-5.446 5.713-6.236-.137-.79-7.91-10.244-7.91-10.244s2.193-1.304 3.076-1.782a3.476 3.476 0 0 0 1.32-1.336l9.668 8.91s.943-2.974 1.319-4.455c.376-1.482.571-2.91 0-3.564-.571-.656-9.67-5.792-9.67-5.792.114-.887.114-1.785 0-2.672a12.959 12.959 0 0 0-.878-3.118s8.276 2.576 8.79 2.673c.514.096-4.303-8.596-4.834-8.91-.532-.315-7.033 0-7.033 0s-1.569-2.2-2.636-3.563a81.332 81.332 0 0 0-2.202-2.674s5.348-2.28 4.834-2.672c-.513-.392-7.737-7.041-8.35-7.127-.612-.086-3.077 4.454-3.077 4.454a22.389 22.389 0 0 0-3.955-3.118 16.09 16.09 0 0 0-2.637-1.336s.3-5.866 0-6.238c-.3-.37-8.99-4.075-9.669-4.009-.68.066 2.637 7.573 2.637 7.573a12.854 12.854 0 0 0-3.956-.89c-1.8-.013-3.077 0-3.077 0S21.145.423 20.215.073c-.93-.35-7.66.627-7.911 1.336-.251.71 8.79 8.019 8.79 8.019a6.979 6.979 0 0 0-2.637 1.782 8.003 8.003 0 0 0-.879 2.23S6.813 6.94 6.151 6.76c-.663-.182-4.582 7.717-5.274 9.354A19.71 19.71 0 0 0 0 21.008z" fill="url(#a)" transform="translate(22)"/>
        <path d="M41 16.488s-.153-6.183 8.423-6.478c8.576-.295 18.586 5.948 24.052 11.337 5.466 5.39 7.875 11.656 8.418 14.984a7.958 7.958 0 0 1-1.2 5.669s3.753-7.548-8.418-19.843C60.104 9.86 42.589 7.897 41 16.487z" fill="#1e1e1e" fill-rule="nonzero" opacity=".3"/>
        <path d="M62.037 20l.607 4.156-3.824-1.829 7.868 11.12L72 28.635l-3.017-1.444-.18-3.646L62.036 20zM52 29.465l3.83 1.417.872 3.072L62.72 36l-.493-2.75 3.07 1.136-8.109-10.767L52 29.465z" fill="#FF5D5D"/>
        <path d="M62.037 19l.607 4.156-3.824-1.829 7.868 11.12L72 27.635l-3.017-1.444-.18-3.646L62.036 19zM52 28.465l3.83 1.417.872 3.072L62.72 35l-.493-2.75 3.07 1.136-8.109-10.767L52 28.465z" fill="#1e1e1e" fill-rule="nonzero"/>
        <path fill="#1e1e1e" fill-rule="nonzero" opacity=".2" d="M0 0h115v66H0z"/>
    </g>
</svg>